<svg width="60" height="61" viewBox="0 0 60 61" fill="none" xmlns="http://www.w3.org/2000/svg">
<path d="M31.0268 32.4238L7.49989 34.6984L1.30886 54.4985C0.939715 55.6692 1.30183 56.9487 2.23343 57.7505C3.16151 58.5519 4.4799 58.7206 5.58386 58.1829L57.144 33.215C58.1531 32.7228 58.7929 31.6998 58.7929 30.5783C58.7929 29.4568 58.1528 28.4337 57.144 27.9415L5.61896 2.95573C4.51504 2.41784 3.1967 2.58659 2.26853 3.38816C1.33685 4.18973 0.974778 5.4659 1.34396 6.63661L7.53495 26.4366L31.016 28.7147C31.9652 28.8096 32.6894 29.6077 32.6894 30.5604C32.6894 31.5132 31.9652 32.3112 31.016 32.4061L31.0268 32.4238Z" fill="#9A9EF1"/>
</svg>
