<svg width="66" height="66" viewBox="0 0 66 66" fill="none" xmlns="http://www.w3.org/2000/svg">
<circle cx="33" cy="33" r="24.7501" fill="black"/>
<path d="M43.788 23.1028C41.8038 22.1924 39.6761 21.5216 37.4515 21.1374C37.411 21.13 37.3705 21.1486 37.3496 21.1856C37.076 21.6723 36.7729 22.3073 36.5606 22.8063C34.1679 22.4481 31.7874 22.4481 29.4437 22.8063C29.2314 22.2961 28.9173 21.6723 28.6424 21.1856C28.6216 21.1498 28.5811 21.1313 28.5406 21.1374C26.3172 21.5204 24.1894 22.1911 22.2041 23.1028C22.1869 23.1102 22.1722 23.1225 22.1623 23.1386C18.1266 29.168 17.021 35.0492 17.5633 40.8575C17.5658 40.8859 17.5817 40.9131 17.6038 40.9304C20.2665 42.8858 22.8458 44.0729 25.3772 44.8598C25.4177 44.8722 25.4607 44.8574 25.4864 44.824C26.0852 44.0062 26.619 43.144 27.0767 42.2373C27.1037 42.1842 27.0779 42.1212 27.0227 42.1002C26.176 41.779 25.3699 41.3874 24.5944 40.9427C24.533 40.9069 24.5281 40.8192 24.5846 40.7772C24.7478 40.6549 24.9109 40.5277 25.0668 40.3992C25.095 40.3757 25.1343 40.3708 25.1674 40.3856C30.2621 42.7117 35.7778 42.7117 40.8124 40.3856C40.8455 40.3696 40.8848 40.3745 40.9142 40.398C41.07 40.5265 41.2332 40.6549 41.3977 40.7772C41.4541 40.8192 41.4504 40.9069 41.3891 40.9427C40.6136 41.3961 39.8074 41.779 38.9595 42.099C38.9043 42.12 38.8798 42.1842 38.9067 42.2373C39.3743 43.1428 39.908 44.005 40.4958 44.8228C40.5203 44.8574 40.5645 44.8722 40.605 44.8598C43.1487 44.0729 45.7279 42.8858 48.3907 40.9304C48.414 40.9131 48.4287 40.8872 48.4312 40.8587C49.0803 34.1437 47.344 28.3107 43.8285 23.1398C43.8199 23.1225 43.8052 23.1102 43.788 23.1028ZM27.8375 37.3209C26.3037 37.3209 25.0398 35.9127 25.0398 34.1833C25.0398 32.4539 26.2791 31.0457 27.8375 31.0457C29.4081 31.0457 30.6597 32.4662 30.6352 34.1833C30.6352 35.9127 29.3958 37.3209 27.8375 37.3209ZM38.1816 37.3209C36.6477 37.3209 35.3839 35.9127 35.3839 34.1833C35.3839 32.4539 36.6232 31.0457 38.1816 31.0457C39.7522 31.0457 41.0038 32.4662 40.9792 34.1833C40.9792 35.9127 39.7522 37.3209 38.1816 37.3209Z" fill="white"/>
<rect width="66" height="66" stroke="black"/>
</svg>
