<svg width="50" height="50" viewBox="0 0 50 50" fill="none" xmlns="http://www.w3.org/2000/svg">
<circle cx="25" cy="25" r="24.7501" fill="#5865F2"/>
<path d="M35.788 15.1028C33.8038 14.1924 31.6761 13.5216 29.4515 13.1374C29.411 13.13 29.3705 13.1486 29.3496 13.1856C29.076 13.6723 28.7729 14.3073 28.5606 14.8063C26.1679 14.4481 23.7874 14.4481 21.4437 14.8063C21.2314 14.2961 20.9173 13.6723 20.6424 13.1856C20.6216 13.1498 20.5811 13.1313 20.5406 13.1374C18.3172 13.5204 16.1894 14.1911 14.2041 15.1028C14.1869 15.1102 14.1722 15.1225 14.1623 15.1386C10.1266 21.168 9.02098 27.0492 9.56334 32.8575C9.56579 32.8859 9.58175 32.9131 9.60383 32.9304C12.2665 34.8858 14.8458 36.073 17.3772 36.8598C17.4177 36.8722 17.4607 36.8574 17.4864 36.824C18.0852 36.0062 18.619 35.144 19.0767 34.2373C19.1037 34.1842 19.0779 34.1212 19.0227 34.1002C18.176 33.779 17.3699 33.3874 16.5944 32.9427C16.533 32.9069 16.5281 32.8192 16.5846 32.7772C16.7478 32.6549 16.9109 32.5277 17.0668 32.3992C17.095 32.3757 17.1343 32.3708 17.1674 32.3856C22.2621 34.7117 27.7778 34.7117 32.8124 32.3856C32.8455 32.3696 32.8848 32.3745 32.9142 32.398C33.07 32.5264 33.2332 32.6549 33.3977 32.7772C33.4541 32.8192 33.4504 32.9069 33.3891 32.9427C32.6136 33.3961 31.8074 33.779 30.9595 34.099C30.9043 34.12 30.8798 34.1842 30.9067 34.2373C31.3743 35.1428 31.908 36.005 32.4958 36.8228C32.5203 36.8574 32.5645 36.8722 32.605 36.8598C35.1487 36.073 37.7279 34.8858 40.3907 32.9304C40.414 32.9131 40.4287 32.8872 40.4312 32.8587C41.0803 26.1437 39.344 20.3107 35.8285 15.1398C35.8199 15.1225 35.8052 15.1102 35.788 15.1028ZM19.8375 29.3209C18.3037 29.3209 17.0398 27.9127 17.0398 26.1833C17.0398 24.4539 18.2791 23.0457 19.8375 23.0457C21.4081 23.0457 22.6597 24.4662 22.6352 26.1833C22.6352 27.9127 21.3958 29.3209 19.8375 29.3209ZM30.1816 29.3209C28.6477 29.3209 27.3839 27.9127 27.3839 26.1833C27.3839 24.4539 28.6232 23.0457 30.1816 23.0457C31.7522 23.0457 33.0038 24.4662 32.9792 26.1833C32.9792 27.9127 31.7522 29.3209 30.1816 29.3209Z" fill="white"/>
</svg>
