<svg width="158" height="199" viewBox="0 0 158 199" fill="none" xmlns="http://www.w3.org/2000/svg">
<g filter="url(#filter0_i_103_2)">
<rect y="0.107178" width="158" height="158" rx="50" fill="white" fill-opacity="0.05"/>
</g>
<rect x="1" y="1.10718" width="156" height="156" rx="49" stroke="url(#paint0_linear_103_2)" stroke-opacity="0.2" stroke-width="2"/>
<g filter="url(#filter1_f_103_2)">
<path fill-rule="evenodd" clip-rule="evenodd" d="M111.98 158.408H49C49.637 141.566 63.4919 128.107 80.4902 128.107C97.4886 128.107 111.344 141.566 111.98 158.408Z" fill="#7F76FF" fill-opacity="0.31"/>
</g>
<g filter="url(#filter2_d_103_2)">
<path fill-rule="evenodd" clip-rule="evenodd" d="M112.408 73.1904L105.543 93.7878C100.702 108.31 98.2814 115.571 94.7321 117.635C91.3555 119.598 87.1852 119.598 83.8086 117.635C80.2593 115.571 77.8389 108.31 72.998 93.7877C72.2208 91.456 71.8321 90.29 71.1797 89.3155C70.5475 88.371 69.7362 87.5597 68.7917 86.9275C67.8172 86.2751 66.6513 85.8864 64.3195 85.1092C49.7969 80.2683 42.5357 77.8479 40.4722 74.2985C38.5093 70.9219 38.5093 66.7517 40.4722 63.3751C42.5357 59.8257 49.7969 57.4053 64.3195 52.5645L84.9168 45.6987C102.91 39.7008 111.907 36.7019 116.656 41.451C121.405 46.2001 118.406 55.1968 112.408 73.1904Z" fill="url(#paint1_linear_103_2)"/>
<path d="M83.1824 74.7169C82.0173 73.5389 82.0279 71.6394 83.2059 70.4743L100.048 53.8179C101.226 52.6528 103.126 52.6633 104.291 53.8414C105.456 55.0194 105.445 56.9189 104.267 58.084L87.425 74.7404C86.2469 75.9055 84.3474 75.895 83.1824 74.7169Z" fill="#26243B"/>
</g>
<defs>
<filter id="filter0_i_103_2" x="0" y="0.107178" width="158" height="163" filterUnits="userSpaceOnUse" color-interpolation-filters="sRGB">
<feFlood flood-opacity="0" result="BackgroundImageFix"/>
<feBlend mode="normal" in="SourceGraphic" in2="BackgroundImageFix" result="shape"/>
<feColorMatrix in="SourceAlpha" type="matrix" values="0 0 0 0 0 0 0 0 0 0 0 0 0 0 0 0 0 0 127 0" result="hardAlpha"/>
<feOffset dy="5"/>
<feGaussianBlur stdDeviation="7.5"/>
<feComposite in2="hardAlpha" operator="arithmetic" k2="-1" k3="1"/>
<feColorMatrix type="matrix" values="0 0 0 0 1 0 0 0 0 1 0 0 0 0 1 0 0 0 0.15 0"/>
<feBlend mode="normal" in2="shape" result="effect1_innerShadow_103_2"/>
</filter>
<filter id="filter1_f_103_2" x="9" y="88.1072" width="142.98" height="110.301" filterUnits="userSpaceOnUse" color-interpolation-filters="sRGB">
<feFlood flood-opacity="0" result="BackgroundImageFix"/>
<feBlend mode="normal" in="SourceGraphic" in2="BackgroundImageFix" result="shape"/>
<feGaussianBlur stdDeviation="20" result="effect1_foregroundBlur_103_2"/>
</filter>
<filter id="filter2_d_103_2" x="35" y="39.1072" width="88" height="88" filterUnits="userSpaceOnUse" color-interpolation-filters="sRGB">
<feFlood flood-opacity="0" result="BackgroundImageFix"/>
<feColorMatrix in="SourceAlpha" type="matrix" values="0 0 0 0 0 0 0 0 0 0 0 0 0 0 0 0 0 0 127 0" result="hardAlpha"/>
<feOffset dy="4"/>
<feGaussianBlur stdDeviation="2"/>
<feComposite in2="hardAlpha" operator="out"/>
<feColorMatrix type="matrix" values="0 0 0 0 0 0 0 0 0 0 0 0 0 0 0 0 0 0 0.25 0"/>
<feBlend mode="normal" in2="BackgroundImageFix" result="effect1_dropShadow_103_2"/>
<feBlend mode="normal" in="SourceGraphic" in2="effect1_dropShadow_103_2" result="shape"/>
</filter>
<linearGradient id="paint0_linear_103_2" x1="79" y1="0.107178" x2="79" y2="158.107" gradientUnits="userSpaceOnUse">
<stop stop-color="white"/>
<stop offset="1" stop-color="white" stop-opacity="0.3"/>
</linearGradient>
<linearGradient id="paint1_linear_103_2" x1="66.5" y1="79.1072" x2="114" y2="46.6072" gradientUnits="userSpaceOnUse">
<stop stop-color="#0C52FF"/>
<stop offset="0.708333" stop-color="#0CD3FF"/>
<stop offset="1" stop-color="white"/>
</linearGradient>
</defs>
</svg>
