<?xml version="1.0" standalone="no"?>
<!DOCTYPE svg PUBLIC "-//W3C//DTD SVG 20010904//EN"
 "http://www.w3.org/TR/2001/REC-SVG-20010904/DTD/svg10.dtd">
<svg version="1.0" xmlns="http://www.w3.org/2000/svg"
 width="160.000000pt" height="160.000000pt" viewBox="0 0 160.000000 160.000000"
 preserveAspectRatio="xMidYMid meet">

<g transform="translate(0.000000,160.000000) scale(0.100000,-0.100000)"
fill="#000000" stroke="none">
<path d="M565 1112 c4 -13 2 -29 -5 -37 -9 -11 -7 -12 9 -8 25 6 25 10 5 43
-14 24 -15 24 -9 2z"/>
<path d="M1080 963 c-275 -159 -301 -167 -366 -113 l-39 33 39 -38 c35 -34 42
-37 85 -33 33 3 73 20 136 58 49 29 94 53 100 54 13 2 285 166 285 172 0 7 5
9 -240 -133z"/>
<path d="M1400 950 c0 -8 -29 -99 -66 -201 -61 -173 -67 -186 -88 -182 -15 3
-32 23 -52 58 -16 30 -30 53 -31 51 -2 -1 8 -29 21 -62 l24 -59 142 -3 143 -3
-7 33 c-4 18 -21 107 -38 198 -17 91 -35 169 -40 175 -5 5 -8 3 -8 -5z"/>
<path d="M136 688 c-9 -51 -20 -103 -23 -115 -5 -23 -5 -23 128 -23 159 -1
188 -9 261 -75 l53 -48 115 1 c63 1 171 -2 240 -7 l125 -7 43 40 c23 22 42 43
42 46 0 3 -22 10 -49 17 -55 13 -618 177 -787 229 -62 19 -116 34 -121 34 -5
0 -17 -42 -27 -92z"/>
</g>
</svg>
